<?xml version="1.0" encoding="UTF-8"?>
<!-- TODO Verify dynamics on instrument -->
<?xml-model href="https://raw.githubusercontent.com/Thiago-Morais/DecentSampler-schema/refs/heads/development/DecentSampler.xsd"?>
<DecentSampler>
	<effects>
		<effect type="highpass" frequency="100.0" />
		<effect type="chorus" mix="0.1377191245555878" modDepth="0.2" modRate="0.2" />
		<effect type="delay" delayTimeFormat="musical_time" delayTime="10" stereoOffset="0.01" feedback="0.3" wetLevel="0.5" />
		<effect type="reverb" wetLevel="1.0" />
	</effects>
	<ui width="812" height="375" bgImage="Resources/Images/Tuba.png">
		<tab name="main">
			<labeled-knob x="565" y="25" width="90" textSize="20" textColor="FF000000" trackForegroundColor="CC000000" trackBackgroundColor="66999999" label="Attack" type="float" minValue="0.0" maxValue="4.0" value="0.01">
				<binding type="amp" level="instrument" position="0" parameter="ENV_ATTACK" />
			</labeled-knob>
			<labeled-knob x="635" y="25" width="90" textSize="20" textColor="FF000000" trackForegroundColor="CC000000" trackBackgroundColor="66999999" label="Release" type="float" minValue="0.0" maxValue="20.0" value="0.16">
				<binding type="amp" level="instrument" position="0" parameter="ENV_RELEASE" />
			</labeled-knob>
			<labeled-knob x="705" y="25" width="90" textSize="20" textColor="FF000000" trackForegroundColor="CC000000" trackBackgroundColor="66999999" label="Highpass" type="float" minValue="0" maxValue="1" value="0">
				<binding type="effect" level="instrument" position="0" parameter="FX_FILTER_FREQUENCY" translation="table" translationTable="0,33;0.3,150;0.4,450;0.5,1100;0.7,4100;0.9,11000;11,22000" />
			</labeled-knob>
			<labeled-knob x="565" y="115" width="90" textSize="20" textColor="FF000000" trackForegroundColor="CC000000" trackBackgroundColor="66999999" label="Chorus" type="float" minValue="0.0" maxValue="1" value="0">
				<binding type="effect" level="instrument" position="1" parameter="FX_MIX" />
			</labeled-knob>
			<labeled-knob x="635" y="115" width="90" textSize="20" textColor="FF000000" trackForegroundColor="CC000000" trackBackgroundColor="66999999" label="Delay" type="musical_time" minValue="0" maxValue="20" value="0" defaultValue="0">
				<binding type="effect" level="instrument" position="2" parameter="FX_DELAY_TIME" />
			</labeled-knob>
			<labeled-knob x="705" y="115" width="90" textSize="20" textColor="FF000000" trackForegroundColor="CC000000" trackBackgroundColor="66999999" label="Reverb" type="float" minValue="0.0" maxValue="1" value="0">
				<binding type="effect" level="instrument" position="3" parameter="FX_REVERB_WET_LEVEL" />
			</labeled-knob>
			<labeled-knob x="230" y="140" width="70" textSize="20" textColor="FF000000" trackForegroundColor="CC000000" trackBackgroundColor="66999999" label="Dynamics" type="float" minValue="0" maxValue="1" value="1">
				<binding type="amp" level="instrument" parameter="AMP_VOLUME" translation="linear" translationOutputMin="0" translationOutputMax="1" />
				<!-- Cross fade between 2 samples -->
				<binding type="amp" level="tag" parameter="TAG_VOLUME" identifier="2-dynamics-ff" translation="table" translationTable="0.0,0;0.5,0;1.0,1" />
				<binding type="amp" level="tag" parameter="TAG_VOLUME" identifier="2-dynamics-mp" translation="table" translationTable="0.0,1;0.5,1;1.0,0" />
				<!-- Cross fade between 3 samples -->
				<binding type="amp" level="tag" parameter="TAG_VOLUME" identifier="3-dynamics-ff" translation="table" translationTable="0.0,0;0.23,0;0.43,0;0.66,0;1.0,1" />
				<binding type="amp" level="tag" parameter="TAG_VOLUME" identifier="3-dynamics-mf" translation="table" translationTable="0.0,0;0.23,0;0.43,1;0.66,1;1.0,0" />
				<binding type="amp" level="tag" parameter="TAG_VOLUME" identifier="3-dynamics-mp" translation="table" translationTable="0.0,1;0.23,1;0.43,0;0.66,0;1.0,0" />
			</labeled-knob>
		</tab>
		<keyboard />
	</ui>
	<groups attack="0" release="0.028" ampVelTrack="0">
		<group name="Stac RR 1">
			<sample rootNote="62" loNote="60" hiNote="64" loVel="97" hiVel="127" end="41219" path="Resources/Tuba - Ensemble Samples/Tuba3_stac_D3_v2_rr1_Sum.wav" volume="5.85730903073885dB" />
			<sample rootNote="58" loNote="56" hiNote="59" loVel="97" hiVel="127" end="34275" path="Resources/Tuba - Ensemble Samples/Tuba3_stac_A#2_v2_rr1_Sum.wav" volume="5.85730903073885dB" />
			<sample rootNote="53" loNote="52" hiNote="55" loVel="97" hiVel="127" end="43630" path="Resources/Tuba - Ensemble Samples/Tuba3_stac_F2_v2_rr1_Sum.wav" volume="5.85730903073885dB" />
			<sample rootNote="50" loNote="48" hiNote="51" loVel="97" hiVel="127" end="31385" path="Resources/Tuba - Ensemble Samples/Tuba3_stac_D2_v2_rr1_Sum.wav" volume="5.85730903073885dB" />
			<sample rootNote="46" loNote="44" hiNote="47" loVel="97" hiVel="127" end="41892" path="Resources/Tuba - Ensemble Samples/Tuba3_stac_A#1_v2_rr1_Sum.wav" volume="5.85730903073885dB" />
			<sample rootNote="41" loNote="40" hiNote="43" loVel="97" hiVel="127" end="42469" path="Resources/Tuba - Ensemble Samples/Tuba3_stac_F1_v2_rr1_Sum.wav" volume="5.85730903073885dB" />
			<sample rootNote="39" loNote="37" hiNote="39" loVel="97" hiVel="127" end="56803" path="Resources/Tuba - Ensemble Samples/Tuba3_stac_D#1_v2_rr1_Sum.wav" volume="5.85730903073885dB" />
			<sample rootNote="34" loNote="29" hiNote="36" loVel="97" hiVel="127" end="38059" path="Resources/Tuba - Ensemble Samples/Tuba3_stac_A#0_v2_rr1_Sum.wav" volume="5.85730903073885dB" />
			<sample rootNote="62" loNote="60" hiNote="64" loVel="0" hiVel="96" end="25483" path="Resources/Tuba - Ensemble Samples/Tuba3_stac_D3_v1_rr1_Sum.wav" volume="5.85730903073885dB" />
			<sample rootNote="58" loNote="56" hiNote="59" loVel="0" hiVel="96" end="33078" path="Resources/Tuba - Ensemble Samples/Tuba3_stac_A#2_v1_rr1_Sum.wav" volume="5.85730903073885dB" />
			<sample rootNote="53" loNote="52" hiNote="55" loVel="0" hiVel="96" end="28144" path="Resources/Tuba - Ensemble Samples/Tuba3_stac_F2_v1_rr1_Sum.wav" volume="5.85730903073885dB" />
			<sample rootNote="50" loNote="48" hiNote="51" loVel="0" hiVel="96" end="28080" path="Resources/Tuba - Ensemble Samples/Tuba3_stac_D2_v1_rr1_Sum.wav" volume="5.85730903073885dB" />
			<sample rootNote="46" loNote="44" hiNote="47" loVel="0" hiVel="96" end="27167" path="Resources/Tuba - Ensemble Samples/Tuba3_stac_A#1_v1_rr1_Sum.wav" volume="5.85730903073885dB" />
			<sample rootNote="41" loNote="40" hiNote="43" loVel="0" hiVel="96" end="36677" path="Resources/Tuba - Ensemble Samples/Tuba3_stac_F1_v1_rr1_Sum.wav" volume="5.85730903073885dB" />
			<sample rootNote="39" loNote="37" hiNote="39" loVel="0" hiVel="96" end="48095" path="Resources/Tuba - Ensemble Samples/Tuba3_stac_D#1_v1_rr1_Sum.wav" volume="5.85730903073885dB" />
			<sample rootNote="34" loNote="29" hiNote="36" loVel="0" hiVel="96" end="34670" path="Resources/Tuba - Ensemble Samples/Tuba3_stac_A#0_v1_rr1_Sum.wav" volume="5.85730903073885dB" />
		</group>
		<group name="Stac RR 2">
			<sample rootNote="62" loNote="60" hiNote="64" loVel="97" hiVel="127" end="43099" path="Resources/Tuba - Ensemble Samples/Tuba3_stac_D3_v2_rr2_Sum.wav" volume="5.85730903073885dB" />
			<sample rootNote="58" loNote="56" hiNote="59" loVel="97" hiVel="127" end="33971" path="Resources/Tuba - Ensemble Samples/Tuba3_stac_A#2_v2_rr2_Sum.wav" volume="5.85730903073885dB" />
			<sample rootNote="53" loNote="52" hiNote="55" loVel="97" hiVel="127" end="36393" path="Resources/Tuba - Ensemble Samples/Tuba3_stac_F2_v2_rr2_Sum.wav" volume="5.85730903073885dB" />
			<sample rootNote="50" loNote="48" hiNote="51" loVel="97" hiVel="127" end="31960" path="Resources/Tuba - Ensemble Samples/Tuba3_stac_D2_v2_rr2_Sum.wav" volume="5.85730903073885dB" />
			<sample rootNote="46" loNote="44" hiNote="47" loVel="97" hiVel="127" end="46405" path="Resources/Tuba - Ensemble Samples/Tuba3_stac_A#1_v2_rr2_Sum.wav" volume="5.85730903073885dB" />
			<sample rootNote="41" loNote="40" hiNote="43" loVel="97" hiVel="127" end="36718" path="Resources/Tuba - Ensemble Samples/Tuba3_stac_F1_v2_rr2_Sum.wav" volume="5.85730903073885dB" />
			<sample rootNote="39" loNote="37" hiNote="39" loVel="97" hiVel="127" end="41503" path="Resources/Tuba - Ensemble Samples/Tuba3_stac_D#1_v2_rr2_Sum.wav" volume="5.85730903073885dB" />
			<sample rootNote="34" loNote="29" hiNote="36" loVel="97" hiVel="127" end="33681" path="Resources/Tuba - Ensemble Samples/Tuba3_stac_A#0_v2_rr2_Sum.wav" volume="5.85730903073885dB" />
			<sample rootNote="62" loNote="60" hiNote="64" loVel="0" hiVel="96" end="41219" path="Resources/Tuba - Ensemble Samples/Tuba3_stac_D3_v2_rr1_Sum.wav" volume="5.85730903073885dB" />
			<sample rootNote="58" loNote="56" hiNote="59" loVel="0" hiVel="96" end="34275" path="Resources/Tuba - Ensemble Samples/Tuba3_stac_A#2_v2_rr1_Sum.wav" volume="5.85730903073885dB" />
			<sample rootNote="53" loNote="52" hiNote="55" loVel="0" hiVel="96" end="43630" path="Resources/Tuba - Ensemble Samples/Tuba3_stac_F2_v2_rr1_Sum.wav" volume="5.85730903073885dB" />
			<sample rootNote="50" loNote="48" hiNote="51" loVel="0" hiVel="96" end="31385" path="Resources/Tuba - Ensemble Samples/Tuba3_stac_D2_v2_rr1_Sum.wav" volume="5.85730903073885dB" />
			<sample rootNote="46" loNote="44" hiNote="47" loVel="0" hiVel="96" end="41892" path="Resources/Tuba - Ensemble Samples/Tuba3_stac_A#1_v2_rr1_Sum.wav" volume="5.85730903073885dB" />
			<sample rootNote="41" loNote="40" hiNote="43" loVel="0" hiVel="96" end="42469" path="Resources/Tuba - Ensemble Samples/Tuba3_stac_F1_v2_rr1_Sum.wav" volume="5.85730903073885dB" />
			<sample rootNote="39" loNote="37" hiNote="39" loVel="0" hiVel="96" end="56803" path="Resources/Tuba - Ensemble Samples/Tuba3_stac_D#1_v2_rr1_Sum.wav" volume="5.85730903073885dB" />
			<sample rootNote="34" loNote="29" hiNote="36" loVel="0" hiVel="96" end="38059" path="Resources/Tuba - Ensemble Samples/Tuba3_stac_A#0_v2_rr1_Sum.wav" volume="5.85730903073885dB" />
		</group>
		<group name="Sus Non Vib">
			<sample rootNote="58" loNote="56" hiNote="59" loVel="97" hiVel="127" end="243337" path="Resources/Tuba - Ensemble Samples/Tuba3_sus_A#2_v3_rr1_Mid.wav" volume="5.85730903073885dB" />
			<sample rootNote="53" loNote="52" hiNote="55" loVel="97" hiVel="127" end="159877" path="Resources/Tuba - Ensemble Samples/Tuba3_sus_F2_v3_rr1_Mid.wav" volume="5.85730903073885dB" />
			<sample rootNote="50" loNote="48" hiNote="51" loVel="97" hiVel="127" end="200940" path="Resources/Tuba - Ensemble Samples/Tuba3_sus_D2_v3_rr1_Mid.wav" start="670" volume="5.85730903073885dB" />
			<sample rootNote="46" loNote="44" hiNote="47" loVel="97" hiVel="127" end="191154" path="Resources/Tuba - Ensemble Samples/Tuba3_sus_A#1_v3_rr1_Mid.wav" volume="5.85730903073885dB" />
			<sample rootNote="41" loNote="40" hiNote="43" loVel="97" hiVel="127" end="142274" path="Resources/Tuba - Ensemble Samples/Tuba3_sus_F1_v3_rr1_Mid.wav" volume="5.85730903073885dB" />
			<sample rootNote="39" loNote="37" hiNote="39" loVel="97" hiVel="127" end="152122" path="Resources/Tuba - Ensemble Samples/Tuba3_sus_D#1_v3_rr1_Mid.wav" volume="5.85730903073885dB" />
			<sample rootNote="34" loNote="32" hiNote="36" loVel="97" hiVel="127" end="178090" path="Resources/Tuba - Ensemble Samples/Tuba3_sus_A#0_v3_rr1_Mid.wav" volume="5.85730903073885dB" />
			<sample rootNote="58" loNote="56" hiNote="59" loVel="49" hiVel="96" end="431669" path="Resources/Tuba - Ensemble Samples/Tuba3_sus_A#2_v2_rr1_Mid.wav" volume="5.85730903073885dB" />
			<sample rootNote="53" loNote="52" hiNote="55" loVel="49" hiVel="96" end="516315" path="Resources/Tuba - Ensemble Samples/Tuba3_sus_F2_v2_rr1_Mid.wav" volume="5.85730903073885dB" />
			<sample rootNote="50" loNote="48" hiNote="51" loVel="49" hiVel="96" end="540363" path="Resources/Tuba - Ensemble Samples/Tuba3_sus_D2_v2_rr1_Mid.wav" start="795" volume="5.85730903073885dB" />
			<sample rootNote="46" loNote="44" hiNote="47" loVel="49" hiVel="96" end="355782" path="Resources/Tuba - Ensemble Samples/Tuba3_sus_A#1_v2_rr1_Mid.wav" volume="5.85730903073885dB" />
			<sample rootNote="41" loNote="40" hiNote="43" loVel="49" hiVel="96" end="291664" path="Resources/Tuba - Ensemble Samples/Tuba3_sus_F1_v2_rr1_Mid.wav" volume="5.85730903073885dB" />
			<sample rootNote="39" loNote="37" hiNote="39" loVel="49" hiVel="96" end="281423" path="Resources/Tuba - Ensemble Samples/Tuba3_sus_D#1_v2_rr1_Mid.wav" volume="5.85730903073885dB" />
			<sample rootNote="34" loNote="32" hiNote="36" loVel="49" hiVel="96" end="328484" path="Resources/Tuba - Ensemble Samples/Tuba3_sus_A#0_v2_rr1_Mid.wav" volume="5.85730903073885dB" />
			<sample rootNote="29" loNote="29" hiNote="31" loVel="0" hiVel="127" end="175454" path="Resources/Tuba - Ensemble Samples/Tuba3_sus_F0_v1_rr1_Mid.wav" volume="5.85730903073885dB" />
			<sample rootNote="62" loNote="60" hiNote="64" loVel="0" hiVel="127" end="421623" path="Resources/Tuba - Ensemble Samples/Tuba3_sus_D3_v1_rr1_Mid.wav" volume="5.85730903073885dB" />
			<sample rootNote="58" loNote="56" hiNote="59" loVel="0" hiVel="48" end="316038" path="Resources/Tuba - Ensemble Samples/Tuba3_sus_A#2_v1_rr1_Mid.wav" volume="5.85730903073885dB" />
			<sample rootNote="53" loNote="52" hiNote="55" loVel="0" hiVel="48" end="755177" path="Resources/Tuba - Ensemble Samples/Tuba3_sus_F2_v1_rr1_Mid.wav" volume="5.85730903073885dB" />
			<sample rootNote="50" loNote="46" hiNote="51" loVel="0" hiVel="48" end="559464" path="Resources/Tuba - Ensemble Samples/Tuba3_sus_D2_v1_rr1_Mid.wav" volume="5.85730903073885dB" />
			<sample rootNote="41" loNote="40" hiNote="45" loVel="0" hiVel="48" end="427996" loopEnabled="true" loopEnd="427996" loopStart="2110" path="Resources/Tuba - Ensemble Samples/Tuba3_sus_F1_v1_rr1_Mid.wav" volume="5.85730903073885dB" />
			<sample rootNote="39" loNote="37" hiNote="39" loVel="0" hiVel="48" end="347113" path="Resources/Tuba - Ensemble Samples/Tuba3_sus_D#1_v1_rr1_Mid.wav" volume="5.85730903073885dB" />
			<sample rootNote="34" loNote="32" hiNote="36" loVel="0" hiVel="48" end="354117" path="Resources/Tuba - Ensemble Samples/Tuba3_sus_A#0_v1_rr1_Mid.wav" volume="5.85730903073885dB" />
		</group>
		<group name="Sus Non Vib Loud">
			<sample rootNote="58" loNote="56" hiNote="59" loVel="0" hiVel="127" end="243337" path="Resources/Tuba - Ensemble Samples/Tuba3_sus_A#2_v3_rr1_Mid.wav" volume="5.85730903073885dB" />
			<sample rootNote="53" loNote="52" hiNote="55" loVel="0" hiVel="127" end="159877" path="Resources/Tuba - Ensemble Samples/Tuba3_sus_F2_v3_rr1_Mid.wav" volume="5.85730903073885dB" />
			<sample rootNote="50" loNote="48" hiNote="51" loVel="0" hiVel="127" end="200940" path="Resources/Tuba - Ensemble Samples/Tuba3_sus_D2_v3_rr1_Mid.wav" volume="5.85730903073885dB" />
			<sample rootNote="46" loNote="44" hiNote="47" loVel="0" hiVel="127" end="191154" path="Resources/Tuba - Ensemble Samples/Tuba3_sus_A#1_v3_rr1_Mid.wav" volume="5.85730903073885dB" />
			<sample rootNote="41" loNote="40" hiNote="43" loVel="0" hiVel="127" end="142274" path="Resources/Tuba - Ensemble Samples/Tuba3_sus_F1_v3_rr1_Mid.wav" volume="5.85730903073885dB" />
			<sample rootNote="39" loNote="37" hiNote="39" loVel="0" hiVel="127" end="152122" path="Resources/Tuba - Ensemble Samples/Tuba3_sus_D#1_v3_rr1_Mid.wav" volume="5.85730903073885dB" />
			<sample rootNote="34" loNote="32" hiNote="36" loVel="0" hiVel="127" end="178090" path="Resources/Tuba - Ensemble Samples/Tuba3_sus_A#0_v3_rr1_Mid.wav" volume="5.85730903073885dB" />
			<sample rootNote="29" loNote="29" hiNote="31" loVel="0" hiVel="127" end="175454" path="Resources/Tuba - Ensemble Samples/Tuba3_sus_F0_v1_rr1_Mid.wav" volume="5.85730903073885dB" />
			<sample rootNote="62" loNote="60" hiNote="64" loVel="0" hiVel="127" end="421623" path="Resources/Tuba - Ensemble Samples/Tuba3_sus_D3_v1_rr1_Mid.wav" volume="5.85730903073885dB" />
		</group>
		<group name="Sus Non Vib Soft">
			<sample rootNote="29" loNote="29" hiNote="31" loVel="0" hiVel="127" end="175454" path="Resources/Tuba - Ensemble Samples/Tuba3_sus_F0_v1_rr1_Mid.wav" volume="5.85730903073885dB" />
			<sample rootNote="62" loNote="60" hiNote="64" loVel="0" hiVel="127" end="421623" path="Resources/Tuba - Ensemble Samples/Tuba3_sus_D3_v1_rr1_Mid.wav" volume="5.85730903073885dB" />
			<sample rootNote="58" loNote="56" hiNote="59" loVel="0" hiVel="127" end="316038" path="Resources/Tuba - Ensemble Samples/Tuba3_sus_A#2_v1_rr1_Mid.wav" volume="5.85730903073885dB" />
			<sample rootNote="53" loNote="52" hiNote="55" loVel="0" hiVel="127" end="755177" path="Resources/Tuba - Ensemble Samples/Tuba3_sus_F2_v1_rr1_Mid.wav" volume="5.85730903073885dB" />
			<sample rootNote="50" loNote="46" hiNote="51" loVel="0" hiVel="127" end="559464" path="Resources/Tuba - Ensemble Samples/Tuba3_sus_D2_v1_rr1_Mid.wav" volume="5.85730903073885dB" />
			<sample rootNote="41" loNote="40" hiNote="45" loVel="0" hiVel="127" end="427996" loopEnabled="true" loopEnd="427996" loopStart="2110" path="Resources/Tuba - Ensemble Samples/Tuba3_sus_F1_v1_rr1_Mid.wav" volume="5.85730903073885dB" />
			<sample rootNote="39" loNote="37" hiNote="39" loVel="0" hiVel="127" end="347113" path="Resources/Tuba - Ensemble Samples/Tuba3_sus_D#1_v1_rr1_Mid.wav" volume="5.85730903073885dB" />
			<sample rootNote="34" loNote="32" hiNote="36" loVel="0" hiVel="127" end="354117" path="Resources/Tuba - Ensemble Samples/Tuba3_sus_A#0_v1_rr1_Mid.wav" volume="5.85730903073885dB" />
		</group>
		<group name="Stac RR 3">
			<sample rootNote="62" loNote="60" hiNote="64" loVel="97" hiVel="127" end="28331" path="Resources/Tuba - Ensemble Samples/Tuba3_stac_D3_v2_rr3_Sum.wav" volume="5.85730903073885dB" />
			<sample rootNote="58" loNote="56" hiNote="59" loVel="97" hiVel="127" end="37498" path="Resources/Tuba - Ensemble Samples/Tuba3_stac_A#2_v2_rr3_Sum.wav" volume="5.85730903073885dB" />
			<sample rootNote="53" loNote="52" hiNote="55" loVel="97" hiVel="127" end="37118" path="Resources/Tuba - Ensemble Samples/Tuba3_stac_F2_v2_rr3_Sum.wav" volume="5.85730903073885dB" />
			<sample rootNote="50" loNote="48" hiNote="51" loVel="97" hiVel="127" end="32475" path="Resources/Tuba - Ensemble Samples/Tuba3_stac_D2_v2_rr3_Sum.wav" volume="5.85730903073885dB" />
			<sample rootNote="46" loNote="44" hiNote="47" loVel="97" hiVel="127" end="37657" path="Resources/Tuba - Ensemble Samples/Tuba3_stac_A#1_v2_rr3_Sum.wav" volume="5.85730903073885dB" />
			<sample rootNote="41" loNote="40" hiNote="43" loVel="97" hiVel="127" end="53846" path="Resources/Tuba - Ensemble Samples/Tuba3_stac_F1_v2_rr3_Sum.wav" volume="5.85730903073885dB" />
			<sample rootNote="39" loNote="37" hiNote="39" loVel="97" hiVel="127" end="43255" path="Resources/Tuba - Ensemble Samples/Tuba3_stac_D#1_v2_rr3_Sum.wav" volume="5.85730903073885dB" />
			<sample rootNote="34" loNote="29" hiNote="36" loVel="97" hiVel="127" end="34656" path="Resources/Tuba - Ensemble Samples/Tuba3_stac_A#0_v2_rr3_Sum.wav" volume="5.85730903073885dB" />
			<sample rootNote="62" loNote="60" hiNote="64" loVel="0" hiVel="96" end="25876" path="Resources/Tuba - Ensemble Samples/Tuba3_stac_D3_v1_rr3_Sum.wav" volume="5.85730903073885dB" />
			<sample rootNote="58" loNote="56" hiNote="59" loVel="0" hiVel="96" end="32177" path="Resources/Tuba - Ensemble Samples/Tuba3_stac_A#2_v1_rr3_Sum.wav" volume="5.85730903073885dB" />
			<sample rootNote="53" loNote="52" hiNote="55" loVel="0" hiVel="96" end="26446" path="Resources/Tuba - Ensemble Samples/Tuba3_stac_F2_v1_rr3_Sum.wav" volume="5.85730903073885dB" />
			<sample rootNote="50" loNote="48" hiNote="51" loVel="0" hiVel="96" end="30163" path="Resources/Tuba - Ensemble Samples/Tuba3_stac_D2_v1_rr3_Sum.wav" volume="5.85730903073885dB" />
			<sample rootNote="46" loNote="44" hiNote="47" loVel="0" hiVel="96" end="27270" path="Resources/Tuba - Ensemble Samples/Tuba3_stac_A#1_v1_rr3_Sum.wav" volume="5.85730903073885dB" />
			<sample rootNote="41" loNote="40" hiNote="43" loVel="0" hiVel="96" end="36436" path="Resources/Tuba - Ensemble Samples/Tuba3_stac_F1_v1_rr3_Sum.wav" volume="5.85730903073885dB" />
			<sample rootNote="39" loNote="37" hiNote="39" loVel="0" hiVel="96" end="25619" path="Resources/Tuba - Ensemble Samples/Tuba3_stac_D#1_v1_rr3_Sum.wav" volume="5.85730903073885dB" />
			<sample rootNote="34" loNote="29" hiNote="36" loVel="0" hiVel="96" end="40150" path="Resources/Tuba - Ensemble Samples/Tuba3_stac_A#0_v1_rr3_Sum.wav" volume="5.85730903073885dB" />
		</group>
		<group name="Stac RR 4">
			<sample rootNote="62" loNote="60" hiNote="64" loVel="97" hiVel="127" end="33478" path="Resources/Tuba - Ensemble Samples/Tuba3_stac_D3_v2_rr4_Sum.wav" volume="5.85730903073885dB" />
			<sample rootNote="58" loNote="56" hiNote="59" loVel="97" hiVel="127" end="34126" path="Resources/Tuba - Ensemble Samples/Tuba3_stac_A#2_v2_rr4_Sum.wav" volume="5.85730903073885dB" />
			<sample rootNote="53" loNote="52" hiNote="55" loVel="97" hiVel="127" end="54287" path="Resources/Tuba - Ensemble Samples/Tuba3_stac_F2_v2_rr4_Sum.wav" volume="5.85730903073885dB" />
			<sample rootNote="50" loNote="48" hiNote="51" loVel="97" hiVel="127" end="30579" path="Resources/Tuba - Ensemble Samples/Tuba3_stac_D2_v2_rr4_Sum.wav" volume="5.85730903073885dB" />
			<sample rootNote="46" loNote="44" hiNote="47" loVel="97" hiVel="127" end="36630" path="Resources/Tuba - Ensemble Samples/Tuba3_stac_A#1_v2_rr4_Sum.wav" volume="5.85730903073885dB" />
			<sample rootNote="41" loNote="40" hiNote="43" loVel="97" hiVel="127" end="41961" path="Resources/Tuba - Ensemble Samples/Tuba3_stac_F1_v2_rr4_Sum.wav" volume="5.85730903073885dB" />
			<sample rootNote="39" loNote="37" hiNote="39" loVel="97" hiVel="127" end="39541" path="Resources/Tuba - Ensemble Samples/Tuba3_stac_D#1_v2_rr4_Sum.wav" volume="5.85730903073885dB" />
			<sample rootNote="34" loNote="29" hiNote="36" loVel="97" hiVel="127" end="32648" path="Resources/Tuba - Ensemble Samples/Tuba3_stac_A#0_v2_rr4_Sum.wav" volume="5.85730903073885dB" />
			<sample rootNote="62" loNote="60" hiNote="64" loVel="0" hiVel="96" end="42063" path="Resources/Tuba - Ensemble Samples/Tuba3_stac_D3_v1_rr4_Sum.wav" volume="5.85730903073885dB" />
			<sample rootNote="58" loNote="56" hiNote="59" loVel="0" hiVel="96" end="34711" path="Resources/Tuba - Ensemble Samples/Tuba3_stac_A#2_v1_rr4_Sum.wav" volume="5.85730903073885dB" />
			<sample rootNote="53" loNote="52" hiNote="55" loVel="0" hiVel="96" end="30037" path="Resources/Tuba - Ensemble Samples/Tuba3_stac_F2_v1_rr4_Sum.wav" volume="5.85730903073885dB" />
			<sample rootNote="50" loNote="48" hiNote="51" loVel="0" hiVel="96" end="45715" path="Resources/Tuba - Ensemble Samples/Tuba3_stac_D2_v1_rr4_Sum.wav" volume="5.85730903073885dB" />
			<sample rootNote="46" loNote="44" hiNote="47" loVel="0" hiVel="96" end="26917" path="Resources/Tuba - Ensemble Samples/Tuba3_stac_A#1_v1_rr4_Sum.wav" volume="5.85730903073885dB" />
			<sample rootNote="41" loNote="40" hiNote="43" loVel="0" hiVel="96" end="48303" path="Resources/Tuba - Ensemble Samples/Tuba3_stac_F1_v1_rr4_Sum.wav" volume="5.85730903073885dB" />
			<sample rootNote="39" loNote="37" hiNote="39" loVel="0" hiVel="96" end="29461" path="Resources/Tuba - Ensemble Samples/Tuba3_stac_D#1_v1_rr4_Sum.wav" volume="5.85730903073885dB" />
			<sample rootNote="34" loNote="29" hiNote="36" loVel="0" hiVel="96" end="49825" path="Resources/Tuba - Ensemble Samples/Tuba3_stac_A#0_v1_rr4_Sum.wav" volume="5.85730903073885dB" />
		</group>
	</groups>
	<midi>
		<!-- Controls dynamics with modwheel -->
		<cc number="1">
			<binding type="control" level="ui" parameter="VALUE" position="6" translation="linear" translationOutputMin="0" translationOutputMax="1" />
		</cc>
		<!-- Controls attack with note velocity -->
		<note note="0-127">
			<binding type="amp" level="instrument" parameter="ENV_ATTACK" translation="table" translationTable="0.0,1;0.05,0.5;0.4,0;0.8,0;1.0,0" translationOutputMin="3" translationOutputMax="0" />
			<binding type="amp" level="instrument" parameter="ENV_ATTACK_CURVE" translation="linear" translationOutputMin="100" translationOutputMax="-100 " />
		</note>
	</midi>
	<!-- Initial dynamics values -->
	<tags>
		<tag name="2-dynamics-ff" volume="1" />
		<tag name="2-dynamics-mp" volume="0" />
		<tag name="3-dynamics-ff" volume="1" />
		<tag name="3-dynamics-mf" volume="0" />
		<tag name="3-dynamics-mp" volume="0" />
	</tags>
	<modulators />
</DecentSampler>
